<svg width="107" height="90" viewBox="0 0 107 90" fill="none" xmlns="http://www.w3.org/2000/svg">
<path d="M76.661 44.0371H30.3392V48.6105H76.661V44.0371Z" fill="white"/>
<path d="M13.4728 74.4251V64.2488L9.79195 71.659H7.62676L3.94594 64.2488V74.4251H0V57.3467H4.28177L8.70935 66.2726L13.159 57.3467H17.4187V74.4251H13.4728Z" fill="white"/>
<path d="M24.9968 57.3467H29.2565L35.1246 74.4251H31.0814L29.9237 70.5985H24.2986L23.1409 74.4251H19.0978L24.9968 57.3467ZM29.1018 67.881L27.1134 61.3147L25.125 67.881H29.1018Z" fill="white"/>
<path d="M36.8037 74.4251V57.3467H44.5012C45.301 57.3467 46.0433 57.5102 46.7282 57.8416C47.4087 58.1686 48.0008 58.6104 48.4957 59.1628C48.9906 59.7151 49.3795 60.3382 49.6623 61.0275C49.9406 61.7168 50.082 62.415 50.082 63.122C50.082 63.829 49.9672 64.4962 49.7462 65.1325C49.5209 65.7644 49.1983 66.3344 48.7829 66.8382C48.3676 67.3419 47.8683 67.7573 47.2938 68.0798L51.0453 74.4296H46.6929L43.423 68.9194H40.7541V74.4296H36.8037V74.4251ZM40.7497 65.4772H44.3598C44.6823 65.4772 44.9651 65.3755 45.2126 65.1767C45.46 64.9779 45.6633 64.6995 45.8268 64.346C45.9859 63.9925 46.0698 63.586 46.0698 63.1176C46.0698 62.6536 45.977 62.2471 45.7914 61.9024C45.6059 61.5577 45.3761 61.2882 45.1065 61.0982C44.8326 60.9082 44.5454 60.811 44.2405 60.811H40.7541V65.4772H40.7497Z" fill="white"/>
<path d="M52.9233 74.4251V57.3467H56.8693V74.4251H52.9233Z" fill="white"/>
<path d="M64.0851 64.6597V74.4251H60.1392V57.3467H63.2676L71.1816 67.4038V57.3467H75.1276V74.4251H71.9063L64.0851 64.6597Z" fill="white"/>
<path d="M90.4032 70.9608V74.4251H78.3975V57.3467H90.1867V60.811H82.3434V64.1295H89.0776V67.3286H82.3434V70.9608H90.4032Z" fill="#FDB913"/>
<path d="M95.3124 57.3467L99.0153 63.2413L102.718 57.3467H107L101.348 66.0074L106.81 74.4296H102.528L99.0153 68.778L95.5024 74.4296H91.1985L96.6601 66.0074L91.0085 57.3467H95.3124Z" fill="#FDB913"/>
<path d="M76.6654 36.6005V41.1739H74.0893C70.4924 41.1739 68.61 39.0705 67.2402 37.5284C65.9588 36.1011 65.2827 35.4074 63.798 35.4074C62.3133 35.4074 61.6328 36.0967 60.3558 37.5284C58.9771 39.0661 57.0992 41.1739 53.5023 41.1739C49.9055 41.1739 48.0231 39.0705 46.6533 37.5284C45.3718 36.1011 44.6957 35.4074 43.211 35.4074C41.7263 35.4074 41.0459 36.0967 39.7688 37.5284C38.4521 39.0043 36.6757 40.9883 33.3705 41.1562C33.2247 41.165 33.07 41.1694 32.9109 41.1694H30.3392V36.6005H32.9109C34.3956 36.6005 35.0761 35.9155 36.3531 34.4795C37.7318 32.9461 39.6098 30.834 43.2066 30.834C46.7991 30.834 48.6859 32.9417 50.0557 34.4795C51.3327 35.9111 52.0132 36.6005 53.4979 36.6005C54.9826 36.6005 55.6631 35.9155 56.9401 34.4795C58.3188 32.9461 60.1967 30.834 63.7936 30.834C67.386 30.834 69.2728 32.9417 70.6426 34.4795C71.9197 35.9111 72.6002 36.6005 74.0849 36.6005H76.6654Z" fill="white"/>
<path d="M33.3704 41.1562V41.1695H32.9109C33.07 41.1739 33.2246 41.1695 33.3704 41.1562Z" fill="white"/>
<path d="M30.8473 84.8138C30.8473 84.3144 30.9312 83.8284 31.1036 83.3512C31.2759 82.8739 31.5278 82.4365 31.8592 82.0432C32.1906 81.6499 32.5971 81.3362 33.0832 81.102C33.5692 80.8678 34.1127 80.7529 34.7225 80.7529C35.4472 80.7529 36.0703 80.9208 36.5917 81.2523C37.1131 81.5837 37.4975 82.0123 37.7494 82.5293L36.9363 83.0595C36.7773 82.7149 36.5696 82.4409 36.3221 82.2376C36.0747 82.0344 35.8051 81.893 35.5179 81.809C35.2307 81.7251 34.9479 81.6809 34.6739 81.6809C34.2232 81.6809 33.8211 81.7737 33.4764 81.9548C33.1274 82.1404 32.8357 82.3835 32.5971 82.6883C32.3585 82.9932 32.1818 83.3379 32.0624 83.7135C31.9431 84.0935 31.8857 84.4735 31.8857 84.8535C31.8857 85.2733 31.9564 85.6798 32.0978 86.0687C32.2392 86.4575 32.438 86.8022 32.6899 87.1027C32.9418 87.4031 33.2423 87.6373 33.5869 87.8141C33.9316 87.9908 34.3072 88.0792 34.7093 88.0792C34.9921 88.0792 35.2837 88.0306 35.5798 87.929C35.8802 87.8273 36.1586 87.6727 36.4193 87.465C36.68 87.2529 36.8877 86.9834 37.038 86.6431L37.8996 87.1115C37.7317 87.518 37.471 87.8627 37.1175 88.1455C36.764 88.4283 36.3751 88.6448 35.9421 88.7862C35.5091 88.932 35.0849 89.0027 34.6651 89.0027C34.1083 89.0027 33.5958 88.8834 33.1274 88.6404C32.659 88.4018 32.2569 88.0792 31.9166 87.6771C31.5764 87.275 31.3113 86.8243 31.1257 86.325C30.9401 85.8345 30.8473 85.3263 30.8473 84.8138Z" fill="white"/>
<path d="M43.1711 80.8105H44.0416L47.369 88.9543H46.2687L45.354 86.5682H41.8499L40.9308 88.9543H39.8306L43.1711 80.8105ZM45.0491 85.764L43.6086 81.9992L42.1592 85.764H45.0491Z" fill="white"/>
<path d="M50.0645 88.9543V80.8105H53.5508C53.9088 80.8105 54.2402 80.8857 54.5362 81.0359C54.8367 81.1861 55.093 81.385 55.3183 81.6324C55.5393 81.8799 55.7116 82.1583 55.8353 82.4676C55.9591 82.7769 56.0209 83.095 56.0209 83.4132C56.0209 83.7888 55.9502 84.1423 55.8088 84.4781C55.6674 84.8139 55.4686 85.1012 55.2123 85.3398C54.956 85.5784 54.6555 85.7419 54.3109 85.8347L56.286 88.9543H55.1151L53.2548 86.0291H51.0984V88.9543H50.0645ZM51.0984 85.11H53.5641C53.8469 85.11 54.0944 85.0305 54.302 84.8758C54.5141 84.7211 54.6776 84.509 54.7969 84.2483C54.9162 83.9876 54.9737 83.7092 54.9737 83.4088C54.9737 83.1039 54.903 82.8211 54.766 82.5648C54.629 82.3085 54.4479 82.1052 54.2269 81.9506C54.006 81.7959 53.7585 81.7208 53.4934 81.7208H51.094V85.11H51.0984Z" fill="white"/>
<path d="M62.481 89.0116C61.9464 89.0116 61.447 88.8967 60.9831 88.6625C60.5191 88.4283 60.117 88.1146 59.7723 87.7213C59.4277 87.328 59.1625 86.8817 58.9681 86.3913C58.7781 85.8964 58.6809 85.3882 58.6809 84.8579C58.6809 84.3056 58.7781 83.7842 58.9681 83.2937C59.1581 82.7988 59.4233 82.3614 59.7635 81.9813C60.1037 81.5969 60.5058 81.2964 60.9698 81.0799C61.4338 80.8634 61.9375 80.7529 62.4766 80.7529C63.2631 80.7529 63.9127 80.9164 64.4253 81.2478C64.9379 81.5748 65.3223 82.0034 65.583 82.5337L64.792 83.086C64.5534 82.6132 64.2309 82.2597 63.8155 82.0299C63.4045 81.8002 62.9494 81.6853 62.4501 81.6853C62.0392 81.6853 61.6636 81.7737 61.3277 81.9504C60.9919 82.1272 60.7047 82.3658 60.4617 82.6662C60.2186 82.9667 60.0375 83.3114 59.9093 83.6914C59.7812 84.0758 59.7193 84.4735 59.7193 84.8845C59.7193 85.3219 59.79 85.7329 59.9314 86.1173C60.0728 86.5017 60.2717 86.8464 60.5324 87.138C60.7931 87.4341 61.0935 87.6639 61.4382 87.8318C61.7829 87.9997 62.154 88.0836 62.5517 88.0836C63.0201 88.0836 63.462 87.9643 63.8818 87.7257C64.3016 87.4871 64.6992 87.1248 65.0748 86.6343V87.6992C64.3502 88.5785 63.4797 89.0116 62.481 89.0116ZM64.9555 85.6754H63.2013V84.8933H65.8304V88.9541H64.9555V85.6754Z" fill="white"/>
<path d="M72.3127 89.0116C71.7383 89.0116 71.2169 88.8967 70.7529 88.667C70.2845 88.4372 69.8824 88.1279 69.5422 87.7302C69.2019 87.3369 68.9412 86.8906 68.7557 86.4001C68.5701 85.9097 68.4817 85.4015 68.4817 84.8801C68.4817 84.3366 68.5789 83.8196 68.7733 83.3247C68.9678 82.8298 69.2417 82.3923 69.5864 82.0035C69.9355 81.6191 70.342 81.3097 70.8104 81.0844C71.2788 80.859 71.7869 80.7441 72.3348 80.7441C72.9093 80.7441 73.4307 80.8634 73.8947 81.1021C74.363 81.3407 74.7607 81.6544 75.101 82.0521C75.4368 82.4498 75.6975 82.8917 75.8831 83.3821C76.0643 83.8726 76.1571 84.3719 76.1571 84.8845C76.1571 85.428 76.0598 85.945 75.8698 86.4399C75.6798 86.9348 75.4103 87.3723 75.0612 87.7611C74.7121 88.1455 74.3056 88.4504 73.8372 88.6714C73.3688 88.9012 72.8607 89.0116 72.3127 89.0116ZM69.5245 84.8801C69.5245 85.2955 69.5908 85.6931 69.7234 86.0776C69.8559 86.462 70.0459 86.8067 70.289 87.1027C70.532 87.4032 70.8281 87.6374 71.1727 87.8141C71.5174 87.9909 71.8974 88.0793 72.3216 88.0793C72.759 88.0793 73.1479 87.9865 73.4926 87.8053C73.8372 87.6197 74.1289 87.3767 74.3719 87.0718C74.6105 86.7669 74.7961 86.4222 74.9242 86.0378C75.0524 85.6578 75.1142 85.2689 75.1142 84.8801C75.1142 84.4691 75.0479 84.0715 74.9154 83.687C74.7828 83.307 74.5884 82.9624 74.341 82.6619C74.0935 82.3614 73.7974 82.1228 73.4572 81.9505C73.117 81.7781 72.7414 81.6942 72.326 81.6942C71.8885 81.6942 71.4997 81.7826 71.155 81.9637C70.8104 82.1449 70.5187 82.3879 70.2757 82.6928C70.0327 82.9977 69.8471 83.3424 69.7189 83.718C69.5864 84.098 69.5245 84.4868 69.5245 84.8801Z" fill="white"/>
<path d="M76.6654 24.7317V6.68557C76.6654 2.99591 73.6694 0 69.9798 0H48.2395H40.2107H33.5295V0.00441875H20.1628C18.9963 0.00441875 18.0418 0.950031 18.0418 2.11658C18.0418 3.28313 18.9963 4.22874 20.1628 4.22874H23.9055C25.072 4.22874 26.0177 5.17435 26.0177 6.3409C26.0177 7.51629 25.072 8.4619 23.9055 8.4619H13.4684C12.3019 8.4619 11.3474 9.40752 11.3474 10.5741C11.3474 11.7406 12.3019 12.6862 13.4684 12.6862H29.7648C30.9313 12.6862 31.8769 13.6318 31.8769 14.8072C31.8769 15.9738 30.9313 16.9194 29.7648 16.9194H23.985C22.8185 16.9194 21.864 17.865 21.864 19.0315C21.864 20.1981 22.8185 21.1437 23.985 21.1437H27.4847C28.6512 21.1437 29.5968 22.0893 29.5968 23.2647C29.5968 24.4313 28.6512 25.3769 27.4847 25.3769H19.553C18.3865 25.3769 17.4409 26.3225 17.4409 27.489C17.4409 28.6556 18.3865 29.6012 19.553 29.6012H33.5295H34.8331H35.9289C37.1131 29.5968 37.8378 28.6114 39.0883 26.5037C40.4007 24.2987 42.0356 22.5047 45.5043 22.5047C48.9775 22.5047 50.6124 24.2987 51.9248 26.5037C53.1797 28.6158 53.9 29.6056 55.093 29.6056C56.2817 29.6056 57.0063 28.6158 58.2613 26.5037C59.5736 24.2987 61.2042 22.5047 64.6773 22.5047C68.1504 22.5047 69.7854 24.2987 71.0977 26.5037C72.3527 28.6158 73.0729 29.6056 74.266 29.6056H76.6654V27.7453V24.7317Z" fill="#FDB913"/>
<path d="M9.28392 4.22872H14.3876C15.5541 4.22872 16.4997 3.28311 16.4997 2.11656C16.4997 0.950006 15.5541 0.00439453 14.3876 0.00439453H9.28392C8.11737 0.00439453 7.17175 0.950006 7.17175 2.11656C7.17175 3.28311 8.11737 4.22872 9.28392 4.22872Z" fill="#FDB913"/>
<path d="M2.36853 4.22823H3.64996C4.81651 4.22823 5.76212 3.28262 5.76212 2.11607C5.76212 0.949518 4.81651 0.00390625 3.64996 0.00390625H2.36853C1.20198 0.00390625 0.256363 0.949518 0.256363 2.11607C0.251944 3.28262 1.20198 4.22823 2.36853 4.22823Z" fill="#FDB913"/>
<path d="M13.6585 25.3418H11.4226C10.256 25.3418 9.31042 26.2874 9.31042 27.454C9.31042 28.6205 10.256 29.5661 11.4226 29.5661H13.6585C14.825 29.5661 15.7706 28.6205 15.7706 27.454C15.7706 26.2918 14.8206 25.3418 13.6585 25.3418Z" fill="#FDB913"/>
<path d="M12.7615 21.135H17.8651C19.0317 21.135 19.9773 20.1894 19.9773 19.0228C19.9773 17.8563 19.0317 16.9106 17.8651 16.9106H12.7615C11.5949 16.9106 10.6493 17.8563 10.6493 19.0228C10.6493 20.1894 11.5949 21.135 12.7615 21.135Z" fill="#FDB913"/>
<path d="M7.47229 16.9106H2.36863C1.20208 16.9106 0.25647 17.8563 0.25647 19.0228C0.25647 20.1894 1.20208 21.135 2.36863 21.135H7.47229C8.63884 21.135 9.58445 20.1894 9.58445 19.0228C9.58445 17.8563 8.63884 16.9106 7.47229 16.9106Z" fill="#FDB913"/>
</svg>
