<svg width="35" height="39" viewBox="0 0 35 39" fill="none" xmlns="http://www.w3.org/2000/svg">
<path fill-rule="evenodd" clip-rule="evenodd" d="M23.75 8.53125C23.75 6.91509 23.0915 5.36512 21.9194 4.22232C20.7473 3.07952 19.1576 2.4375 17.5 2.4375C15.8424 2.4375 14.2527 3.07952 13.0806 4.22232C11.9085 5.36512 11.25 6.91509 11.25 8.53125V9.75H23.75V8.53125ZM26.25 8.53125V9.75H30C32.7614 9.75 35 11.9886 35 14.75V34.125C35 35.4179 34.4732 36.6579 33.5355 37.5721C32.5978 38.4864 31.3261 39 30 39H5C3.67392 39 2.40215 38.4864 1.46447 37.5721C0.526784 36.6579 0 35.4179 0 34.125V14.75C0 11.9886 2.23858 9.75 5 9.75H8.75V8.53125C8.75 6.26862 9.67187 4.09866 11.3128 2.49875C12.9538 0.898825 15.1794 0 17.5 0C19.8206 0 22.0462 0.898825 23.6872 2.49875C25.3281 4.09866 26.25 6.26862 26.25 8.53125ZM18.75 19.5C18.75 19.1768 18.6183 18.8668 18.3839 18.6382C18.1495 18.4097 17.8315 18.2812 17.5 18.2812C17.1685 18.2812 16.8505 18.4097 16.6161 18.6382C16.3817 18.8668 16.25 19.1768 16.25 19.5V23.1562H12.5C12.1685 23.1562 11.8505 23.2847 11.6161 23.5132C11.3817 23.7418 11.25 24.0518 11.25 24.375C11.25 24.6982 11.3817 25.0082 11.6161 25.2368C11.8505 25.4653 12.1685 25.5938 12.5 25.5938H16.25V29.25C16.25 29.5732 16.3817 29.8832 16.6161 30.1118C16.8505 30.3403 17.1685 30.4688 17.5 30.4688C17.8315 30.4688 18.1495 30.3403 18.3839 30.1118C18.6183 29.8832 18.75 29.5732 18.75 29.25V25.5938H22.5C22.8315 25.5938 23.1495 25.4653 23.3839 25.2368C23.6183 25.0082 23.75 24.6982 23.75 24.375C23.75 24.0518 23.6183 23.7418 23.3839 23.5132C23.1495 23.2847 22.8315 23.1562 22.5 23.1562H18.75V19.5Z" fill="#FFAB21"/>
</svg>
