<svg width="44" height="40" viewBox="0 0 44 40" fill="none" xmlns="http://www.w3.org/2000/svg">
<path d="M14.7258 40C16.5331 40 17.9982 38.5076 17.9982 36.6667C17.9982 34.8257 16.5331 33.3334 14.7258 33.3334C12.9185 33.3334 11.4534 34.8257 11.4534 36.6667C11.4534 38.5076 12.9185 40 14.7258 40Z" fill="#FFAB21"/>
<path d="M37.6328 40C39.4401 40 40.9052 38.5076 40.9052 36.6667C40.9052 34.8257 39.4401 33.3334 37.6328 33.3334C35.8255 33.3334 34.3604 34.8257 34.3604 36.6667C34.3604 38.5076 35.8255 40 37.6328 40Z" fill="#FFAB21"/>
<path d="M43.4414 5.91458C43.2116 5.62817 42.922 5.3975 42.5937 5.2393C42.2654 5.08111 41.9066 4.99936 41.5434 5H10.4196L9.79273 1.37708C9.72589 0.991175 9.52769 0.641599 9.23294 0.389758C8.9382 0.137917 8.56577 -8.23348e-05 8.18106 3.68544e-08H1.63621C1.20226 3.68544e-08 0.786085 0.175595 0.479235 0.488155C0.172386 0.800716 0 1.22464 0 1.66667C0 2.10869 0.172386 2.53262 0.479235 2.84518C0.786085 3.15774 1.20226 3.33333 1.63621 3.33333H6.80869L11.478 30.2896C11.5449 30.6755 11.7431 31.025 12.0378 31.2769C12.3326 31.5287 12.705 31.6667 13.0897 31.6666H39.2691C39.703 31.6666 40.1192 31.4911 40.4261 31.1785C40.7329 30.8659 40.9053 30.442 40.9053 30C40.9053 29.558 40.7329 29.134 40.4261 28.8215C40.1192 28.5089 39.703 28.3333 39.2691 28.3333H14.4621L13.8853 25H38.5982C39.1657 24.9992 39.7154 24.7988 40.1545 24.4327C40.5935 24.0665 40.8949 23.5571 41.0076 22.9906L43.9527 7.99062C44.0237 7.6276 44.0147 7.25306 43.9262 6.89404C43.8378 6.53502 43.6722 6.20048 43.4414 5.91458Z" fill="#FFAB21"/>
</svg>
