<svg width="48" height="36" viewBox="0 0 48 36" fill="none" xmlns="http://www.w3.org/2000/svg">
<path fill-rule="evenodd" clip-rule="evenodd" d="M47.2349 9.43781C47.3717 9.57715 47.4802 9.74268 47.5542 9.92491C47.6283 10.1071 47.6664 10.3025 47.6664 10.4998C47.6664 10.6971 47.6283 10.8925 47.5542 11.0747C47.4802 11.2569 47.3717 11.4225 47.2349 11.5618L38.4229 20.5618C38.2865 20.7015 38.1244 20.8123 37.946 20.8879C37.7676 20.9636 37.5763 21.0025 37.3831 21.0025C37.1899 21.0025 36.9986 20.9636 36.8202 20.8879C36.6418 20.8123 36.4797 20.7015 36.3433 20.5618L31.9373 16.0618C31.6615 15.7802 31.5066 15.3981 31.5066 14.9998C31.5066 14.6015 31.6615 14.2195 31.9373 13.9378C32.2131 13.6562 32.5871 13.4979 32.9771 13.4979C33.3671 13.4979 33.7411 13.6562 34.0169 13.9378L37.3831 17.3788L45.1553 9.43781C45.2917 9.29812 45.4538 9.18729 45.6322 9.11167C45.8106 9.03605 46.0019 8.99713 46.1951 8.99713C46.3883 8.99713 46.5795 9.03605 46.758 9.11167C46.9364 9.18729 47.0985 9.29812 47.2349 9.43781Z" fill="#FFAB21"/>
<path d="M3.60371 36C3.60371 36 0.666382 36 0.666382 33C0.666382 30 3.60371 21 18.2903 21C32.977 21 35.9143 30 35.9143 33C35.9143 36 32.977 36 32.977 36H3.60371ZM18.2903 18C20.6274 18 22.8688 17.0518 24.5214 15.364C26.1739 13.6761 27.1023 11.3869 27.1023 9C27.1023 6.61305 26.1739 4.32387 24.5214 2.63604C22.8688 0.948212 20.6274 0 18.2903 0C15.9533 0 13.7119 0.948212 12.0593 2.63604C10.4068 4.32387 9.47836 6.61305 9.47836 9C9.47836 11.3869 10.4068 13.6761 12.0593 15.364C13.7119 17.0518 15.9533 18 18.2903 18Z" fill="#FFAB21"/>
</svg>
