<svg width="81" height="68" viewBox="0 0 81 68" fill="none" xmlns="http://www.w3.org/2000/svg">
<path d="M58.033 33.3367H22.967V36.7988H58.033V33.3367Z" fill="#014585"/>
<path d="M10.199 56.3404V48.6368L7.41259 54.2464H5.77353L2.98712 48.6368V56.3404H0V43.4119H3.24134L6.59306 50.1688L9.96151 43.4119H13.1861V56.3404H10.199Z" fill="#014585"/>
<path d="M18.9228 43.4119H22.1474L26.5897 56.3404H23.5289L22.6525 53.4436H18.3943L17.5179 56.3404H14.4572L18.9228 43.4119ZM22.0304 51.3864L20.5251 46.4157L19.0198 51.3864H22.0304Z" fill="#014585"/>
<path d="M27.8608 56.3404V43.4119H33.6878C34.2933 43.4119 34.8552 43.5356 35.3737 43.7865C35.8889 44.034 36.3371 44.3685 36.7117 44.7867C37.0864 45.2048 37.3807 45.6765 37.5948 46.1983C37.8056 46.7201 37.9126 47.2486 37.9126 47.7838C37.9126 48.319 37.8256 48.8241 37.6584 49.3058C37.4878 49.7842 37.2436 50.2157 36.9292 50.597C36.6147 50.9783 36.2367 51.2928 35.8019 51.537L38.6418 56.3438H35.347L32.8716 52.1725H30.8512V56.3438H27.8608V56.3404ZM30.8479 49.5667H33.5808C33.825 49.5667 34.0391 49.4898 34.2264 49.3393C34.4137 49.1887 34.5676 48.978 34.6913 48.7104C34.8118 48.4428 34.8753 48.1351 34.8753 47.7805C34.8753 47.4293 34.8051 47.1215 34.6646 46.8606C34.5241 46.5997 34.3501 46.3956 34.1461 46.2518C33.9387 46.108 33.7213 46.0344 33.4905 46.0344H30.8512V49.5667H30.8479Z" fill="#014585"/>
<path d="M40.0635 56.3404V43.4119H43.0506V56.3404H40.0635Z" fill="#014585"/>
<path d="M48.513 48.9479V56.3404H45.5259V43.4119H47.8942L53.8851 51.0252V43.4119H56.8722V56.3404H54.4337L48.513 48.9479Z" fill="#014585"/>
<path d="M68.4361 53.7179V56.3404H59.3476V43.4119H68.2721V46.0344H62.3347V48.5465H67.4325V50.9683H62.3347V53.7179H68.4361Z" fill="#FDB913"/>
<path d="M72.1523 43.4119L74.9555 47.8741L77.7586 43.4119H81L76.7217 49.9681L80.8561 56.3438H77.6148L74.9555 52.0655L72.2962 56.3438H69.0381L73.1726 49.9681L68.8943 43.4119H72.1523Z" fill="#FDB913"/>
<path d="M58.0364 27.7068V31.1689H56.0862C53.3634 31.1689 51.9384 29.5767 50.9014 28.4093C49.9314 27.3288 49.4196 26.8037 48.2956 26.8037C47.1717 26.8037 46.6566 27.3255 45.6899 28.4093C44.6462 29.5734 43.2246 31.1689 40.5017 31.1689C37.7789 31.1689 36.3539 29.5767 35.3169 28.4093C34.3468 27.3288 33.8351 26.8037 32.7111 26.8037C31.5872 26.8037 31.0721 27.3255 30.1053 28.4093C29.1085 29.5265 27.7638 31.0284 25.2617 31.1556C25.1513 31.1622 25.0343 31.1656 24.9139 31.1656H22.967V27.7068H24.9139C26.0378 27.7068 26.5529 27.1883 27.5196 26.1012C28.5633 24.9405 29.9849 23.3416 32.7078 23.3416C35.4273 23.3416 36.8556 24.9371 37.8926 26.1012C38.8593 27.185 39.3744 27.7068 40.4984 27.7068C41.6223 27.7068 42.1374 27.1883 43.1041 26.1012C44.1478 24.9405 45.5694 23.3416 48.2923 23.3416C51.0118 23.3416 52.4401 24.9371 53.4771 26.1012C54.4438 27.185 54.9589 27.7068 56.0829 27.7068H58.0364Z" fill="#014585"/>
<path d="M25.2617 31.1555V31.1656H24.9138C25.0342 31.1689 25.1513 31.1656 25.2617 31.1555Z" fill="#014585"/>
<path d="M23.3517 64.2045C23.3517 63.8265 23.4152 63.4585 23.5457 63.0973C23.6762 62.736 23.8668 62.4048 24.1177 62.1071C24.3686 61.8094 24.6763 61.5719 25.0443 61.3946C25.4122 61.2173 25.8237 61.1304 26.2853 61.1304C26.8339 61.1304 27.3055 61.2575 27.7002 61.5084C28.0949 61.7592 28.386 62.0837 28.5766 62.4751L27.9611 62.8765C27.8407 62.6156 27.6835 62.4082 27.4962 62.2543C27.3089 62.1004 27.1048 61.9934 26.8874 61.9298C26.67 61.8663 26.4559 61.8328 26.2485 61.8328C25.9073 61.8328 25.6029 61.9031 25.342 62.0402C25.0777 62.1807 24.8569 62.3647 24.6763 62.5955C24.4957 62.8263 24.3619 63.0872 24.2716 63.3715C24.1813 63.6592 24.1378 63.9469 24.1378 64.2346C24.1378 64.5523 24.1913 64.8601 24.2983 65.1544C24.4054 65.4488 24.5559 65.7097 24.7466 65.9372C24.9372 66.1646 25.1647 66.3419 25.4256 66.4757C25.6865 66.6095 25.9708 66.6764 26.2752 66.6764C26.4893 66.6764 26.7101 66.6396 26.9342 66.5627C27.1617 66.4858 27.3724 66.3687 27.5698 66.2115C27.7671 66.0509 27.9243 65.8469 28.0381 65.5893L28.6904 65.9439C28.5632 66.2516 28.3659 66.5125 28.0983 66.7266C27.8307 66.9407 27.5363 67.1046 27.2085 67.2116C26.8807 67.322 26.5596 67.3755 26.2418 67.3755C25.8203 67.3755 25.4323 67.2852 25.0777 67.1013C24.7231 66.9206 24.4188 66.6764 24.1612 66.372C23.9036 66.0676 23.7029 65.7264 23.5624 65.3485C23.4219 64.9772 23.3517 64.5925 23.3517 64.2045Z" fill="#58595B"/>
<path d="M32.681 61.1741H33.34L35.8588 67.339H35.0259L34.3335 65.5327H31.6808L30.9851 67.339H30.1522L32.681 61.1741ZM34.1026 64.9239L33.0122 62.0739L31.915 64.9239H34.1026Z" fill="#58595B"/>
<path d="M37.8992 67.339V61.1741H40.5385C40.8094 61.1741 41.0603 61.2309 41.2844 61.3447C41.5119 61.4584 41.7059 61.6089 41.8765 61.7962C42.0437 61.9836 42.1742 62.1943 42.2678 62.4285C42.3615 62.6626 42.4083 62.9035 42.4083 63.1443C42.4083 63.4286 42.3548 63.6962 42.2478 63.9504C42.1407 64.2047 41.9902 64.4221 41.7962 64.6027C41.6022 64.7834 41.3747 64.9071 41.1138 64.9774L42.609 67.339H41.7226L40.3143 65.1246H38.682V67.339H37.8992ZM38.682 64.4288H40.5485C40.7626 64.4288 40.9499 64.3686 41.1071 64.2515C41.2677 64.1344 41.3914 63.9739 41.4818 63.7765C41.5721 63.5792 41.6156 63.3684 41.6156 63.1409C41.6156 62.9101 41.562 62.6961 41.4583 62.5021C41.3547 62.308 41.2175 62.1542 41.0503 62.0371C40.883 61.92 40.6957 61.8631 40.495 61.8631H38.6786V64.4288H38.682Z" fill="#58595B"/>
<path d="M47.2988 67.3822C46.894 67.3822 46.516 67.2953 46.1648 67.118C45.8136 66.9407 45.5092 66.7032 45.2483 66.4055C44.9874 66.1078 44.7867 65.7699 44.6395 65.3986C44.4956 65.024 44.4221 64.6393 44.4221 64.2379C44.4221 63.8198 44.4956 63.4251 44.6395 63.0538C44.7833 62.6791 44.984 62.348 45.2416 62.0603C45.4992 61.7693 45.8036 61.5418 46.1548 61.3779C46.506 61.214 46.8873 61.1304 47.2954 61.1304C47.8909 61.1304 48.3826 61.2541 48.7706 61.505C49.1586 61.7525 49.4496 62.077 49.647 62.4784L49.0482 62.8965C48.8676 62.5386 48.6234 62.271 48.309 62.0971C47.9979 61.9231 47.6534 61.8362 47.2754 61.8362C46.9643 61.8362 46.68 61.9031 46.4257 62.0369C46.1715 62.1707 45.9541 62.3513 45.7701 62.5788C45.5861 62.8062 45.449 63.0671 45.352 63.3548C45.255 63.6458 45.2081 63.9469 45.2081 64.258C45.2081 64.5891 45.2617 64.9002 45.3687 65.1912C45.4757 65.4823 45.6263 65.7432 45.8236 65.9639C46.021 66.1881 46.2484 66.362 46.5094 66.4891C46.7703 66.6162 47.0513 66.6798 47.3523 66.6798C47.7069 66.6798 48.0414 66.5895 48.3592 66.4088C48.6769 66.2282 48.978 65.9539 49.2623 65.5826V66.3888C48.7137 67.0544 48.0548 67.3822 47.2988 67.3822ZM49.172 64.8567H47.844V64.2647H49.8343V67.3388H49.172V64.8567Z" fill="#58595B"/>
<path d="M54.7415 67.3823C54.3066 67.3823 53.9119 67.2954 53.5607 67.1214C53.2061 66.9475 52.9017 66.7133 52.6441 66.4123C52.3866 66.1146 52.1892 65.7767 52.0487 65.4054C51.9082 65.0341 51.8413 64.6494 51.8413 64.2547C51.8413 63.8433 51.9149 63.4519 52.0621 63.0773C52.2093 62.7026 52.4167 62.3715 52.6776 62.0771C52.9418 61.7861 53.2496 61.5519 53.6041 61.3813C53.9587 61.2108 54.3434 61.1238 54.7582 61.1238C55.193 61.1238 55.5877 61.2141 55.939 61.3947C56.2935 61.5754 56.5946 61.8129 56.8522 62.1139C57.1064 62.415 57.3037 62.7495 57.4442 63.1208C57.5814 63.4921 57.6516 63.8701 57.6516 64.2581C57.6516 64.6695 57.578 65.0609 57.4342 65.4355C57.2904 65.8102 57.0863 66.1413 56.8221 66.4357C56.5578 66.7267 56.2501 66.9575 55.8955 67.1248C55.5409 67.2987 55.1562 67.3823 54.7415 67.3823ZM52.6307 64.2547C52.6307 64.5692 52.6809 64.8702 52.7813 65.1612C52.8816 65.4523 53.0255 65.7132 53.2094 65.9373C53.3934 66.1647 53.6175 66.342 53.8784 66.4758C54.1394 66.6096 54.427 66.6765 54.7481 66.6765C55.0793 66.6765 55.3737 66.6063 55.6346 66.4691C55.8955 66.3287 56.1163 66.1447 56.3002 65.9139C56.4809 65.6831 56.6214 65.4222 56.7184 65.1311C56.8154 64.8435 56.8622 64.5491 56.8622 64.2547C56.8622 63.9436 56.812 63.6426 56.7117 63.3516C56.6113 63.0639 56.4641 62.803 56.2768 62.5755C56.0895 62.3481 55.8654 62.1674 55.6078 62.037C55.3503 61.9065 55.0659 61.843 54.7515 61.843C54.4203 61.843 54.126 61.9099 53.8651 62.047C53.6041 62.1842 53.3834 62.3681 53.1994 62.5989C53.0154 62.8297 52.8749 63.0907 52.7779 63.375C52.6776 63.6627 52.6307 63.957 52.6307 64.2547Z" fill="#58595B"/>
<path d="M58.0364 18.7222V5.06104C58.0364 2.26793 55.7684 0 52.9753 0H36.5178H30.4398H25.3822V0.00334503H15.2634C14.3803 0.00334503 13.6578 0.719182 13.6578 1.60227C13.6578 2.48536 14.3803 3.2012 15.2634 3.2012H18.0967C18.9798 3.2012 19.6956 3.91703 19.6956 4.80012C19.6956 5.6899 18.9798 6.40574 18.0967 6.40574H10.1957C9.31261 6.40574 8.59009 7.12158 8.59009 8.00467C8.59009 8.88776 9.31261 9.60359 10.1957 9.60359H22.5322C23.4153 9.60359 24.1311 10.3194 24.1311 11.2092C24.1311 12.0923 23.4153 12.8081 22.5322 12.8081H18.1569C17.2738 12.8081 16.5513 13.524 16.5513 14.4071C16.5513 15.2901 17.2738 16.006 18.1569 16.006H20.8062C21.6892 16.006 22.4051 16.7218 22.4051 17.6116C22.4051 18.4947 21.6892 19.2105 20.8062 19.2105H14.8018C13.9187 19.2105 13.2029 19.9264 13.2029 20.8095C13.2029 21.6925 13.9187 22.4084 14.8018 22.4084H25.3822H26.3689H27.1985C28.095 22.405 28.6436 21.6591 29.5902 20.0635C30.5837 18.3943 31.8213 17.0363 34.4472 17.0363C37.0764 17.0363 38.3141 18.3943 39.3075 20.0635C40.2575 21.6624 40.8028 22.4117 41.7059 22.4117C42.6057 22.4117 43.1543 21.6624 44.1043 20.0635C45.0978 18.3943 46.3321 17.0363 48.9613 17.0363C51.5905 17.0363 52.8282 18.3943 53.8216 20.0635C54.7716 21.6624 55.3169 22.4117 56.22 22.4117H58.0364V21.0035V18.7222Z" fill="#FDB913"/>
<path d="M7.02794 3.20127H10.8915C11.7745 3.20127 12.4904 2.48543 12.4904 1.60234C12.4904 0.719255 11.7745 0.00341797 10.8915 0.00341797H7.02794C6.14485 0.00341797 5.42902 0.719255 5.42902 1.60234C5.42902 2.48543 6.14485 3.20127 7.02794 3.20127Z" fill="#FDB913"/>
<path d="M1.79297 3.20103H2.76303C3.64612 3.20103 4.36195 2.48519 4.36195 1.6021C4.36195 0.719011 3.64612 0.00317383 2.76303 0.00317383H1.79297C0.90988 0.00317383 0.194042 0.719011 0.194042 1.6021C0.190697 2.48519 0.90988 3.20103 1.79297 3.20103Z" fill="#FDB913"/>
<path d="M10.3395 19.1838H8.64696C7.76387 19.1838 7.04803 19.8997 7.04803 20.7828C7.04803 21.6659 7.76387 22.3817 8.64696 22.3817H10.3395C11.2226 22.3817 11.9385 21.6659 11.9385 20.7828C11.9385 19.903 11.2193 19.1838 10.3395 19.1838Z" fill="#FDB913"/>
<path d="M9.66051 15.9994H13.524C14.4071 15.9994 15.1229 15.2835 15.1229 14.4004C15.1229 13.5174 14.4071 12.8015 13.524 12.8015H9.66051C8.77742 12.8015 8.06158 13.5174 8.06158 14.4004C8.06158 15.2835 8.77742 15.9994 9.66051 15.9994Z" fill="#FDB913"/>
<path d="M5.65653 12.8015H1.79302C0.909929 12.8015 0.194092 13.5174 0.194092 14.4004C0.194092 15.2835 0.909929 15.9994 1.79302 15.9994H5.65653C6.53962 15.9994 7.25546 15.2835 7.25546 14.4004C7.25546 13.5174 6.53962 12.8015 5.65653 12.8015Z" fill="#FDB913"/>
</svg>
